<svg width="24" height="24" viewBox="0 0 24 24" fill="black" xmlns="http://www.w3.org/2000/svg">
<path fill-rule="evenodd" clip-rule="evenodd" d="M10.5177 15.4268L10.8084 20.9218C6.59212 20.3641 3.29671 16.8876 3.01897 12.5891L8.50287 13.1941C8.83143 14.1908 9.5694 15.0014 10.5177 15.4268ZM8.74498 10.2911H3.16202C3.96034 6.13778 7.61373 3 12 3C16.3863 3 20.0397 6.13778 20.838 10.2911H15.3361C14.712 9.10889 13.4704 8.3031 12.0405 8.3031C10.6107 8.3031 9.36908 9.10889 8.74498 10.2911ZM15.5798 13.1892C15.2501 14.1943 14.5041 15.0107 13.5458 15.4346L13.256 20.9131C17.44 20.3288 20.7026 16.868 20.9808 12.5933L15.5798 13.1892ZM12 24C18.6274 24 24 18.6274 24 12C24 5.37258 18.6274 0 12 0C5.37258 0 0 5.37258 0 12C0 18.6274 5.37258 24 12 24ZM13.7647 12.0272C13.7647 12.9795 12.9928 13.7514 12.0405 13.7514C11.0883 13.7514 10.3164 12.9795 10.3164 12.0272C10.3164 11.075 11.0883 10.3031 12.0405 10.3031C12.9928 10.3031 13.7647 11.075 13.7647 12.0272Z"/>
</svg>
