<svg id="Layer_1" data-name="Layer 1" xmlns="http://www.w3.org/2000/svg" width="432.38" height="438.66" viewBox="0 0 432.38 438.66" fill="black"><path fill-rule="evenodd" clip-rule="evenodd" d="M432.3,74.84l-.62-15.05-13.1-7.43a402.08,402.08,0,0,0-92-38c-3.81-1.07-7.86-2.1-12.74-3.26a405.18,405.18,0,0,0-89.6-11C222.41,0,220.75,0,219.26,0c-3.79,0-7.59.06-11.3.17a408.22,408.22,0,0,0-90.18,12.61c-4.06,1.05-7.88,2.15-11.56,3.22A402.7,402.7,0,0,0,13.33,56.16L0,64V79.78A407.35,407.35,0,0,0,12.55,180.23c.88,3.5,1.91,7.25,3.14,11.47A401.86,401.86,0,0,0,50,274.77c.23.41.44.84.67,1.25,2.75,5,5.32,9.42,7.85,13.6A406.37,406.37,0,0,0,114,361.57c1.39,1.44,3,3,4.61,4.71,1.42,1.42,2.91,2.88,4.46,4.35a406.13,406.13,0,0,0,58.59,47.21c1,.51,2,1,3,1.54h-.6c6.07,4,12.23,7.79,18.5,11.42l13.59,7.86,15.34-8.88c5.72-3.31,11.32-6.81,16.86-10.4a391.38,391.38,0,0,0,49.35-37.89c5.29-4.78,10.48-9.67,15.51-14.74l.13-.13c1.64-1.64,3.34-3.34,5.09-5.21a401.66,401.66,0,0,0,57.8-75.89c2.21-3.64,4-6.69,5.56-9.59a403.61,403.61,0,0,0,36.08-88.47c.74-2.58,1.38-5.05,1.91-7.13A407.46,407.46,0,0,0,432.38,79.78C432.38,78.33,432.38,76.69,432.3,74.84ZM41.76,184.13c-1-3.51-2-7-2.9-10.54A379.69,379.69,0,0,1,27.14,79.78v-.26a375,375,0,0,1,86.63-37.45c3.57-1,7.13-2.07,10.75-3a380.38,380.38,0,0,1,71.17-11.18c117.59,76.4-28.05,152.79-124.44,229.18A373.39,373.39,0,0,1,41.76,184.13ZM170.09,375.85q-14.7-11.7-28.21-24.8c-2.85-2.69-5.63-5.53-8.37-8.37q-10.3-10.64-19.75-22.07C143.32,222.81,395.66,125,215,27.2c1.43,0,2.85-.06,4.29-.06,1.09,0,2.17,0,3.25,0C449.78,143.4,65.42,259.63,170.09,375.85ZM393.51,173.59c-.57,2.23-1.13,4.4-1.75,6.57A375.48,375.48,0,0,1,358,262.86c-1.6,2.95-3.3,5.84-5.06,8.73a374.67,374.67,0,0,1-54.14,71.09c-1.55,1.65-3.15,3.25-4.75,4.85q-8.08,8.07-16.65,15.61C177.6,251.43,492.48,139.72,244.73,28a376.33,376.33,0,0,1,62.82,9.51c3.93.93,7.85,1.91,11.73,3A374.45,374.45,0,0,1,405.19,76c.05,1.29.05,2.53.05,3.82A379.22,379.22,0,0,1,393.51,173.59Z"/></svg>